<svg xmlns="http://www.w3.org/2000/svg" viewBox="0 0 500 500"><g id="logo1"><rect x="0.5" y="0.5" width="72.52" height="72.52"/><polygon points="158.26 158.26 85.74 85.74 158.26 85.74 158.26 158.26"/><rect x="85.74" y="0.5" width="72.52" height="72.52"/><rect x="170.5" y="0.5" width="158.24" height="72.52"/><rect x="342.74" y="36.5" width="35.76" height="36"/><rect x="342.74" y="0.5" width="35.76" height="26"/><rect x="388.74" y="0.5" width="35.76" height="26"/><polygon points="465.02 73.5 428.5 73.5 428.5 36.98 465.02 73.5"/><polygon points="501.02 37.5 464.5 37.5 464.5 0.98 501.02 37.5"/><rect x="158.5" y="85.74" width="85" height="72.52"/><rect x="256.23" y="85.74" width="72.52" height="72.52"/><polygon points="342.74 158.26 342.74 85.74 415.26 85.74 342.74 158.26"/><rect x="427.98" y="85.74" width="72.52" height="72.52"/><polygon points="243.5 328.74 170.98 328.74 170.98 256.23 243.5 328.74"/><polygon points="328.74 328.74 256.23 328.74 328.74 256.23 328.74 328.74"/><rect x="0.5" y="85.5" width="72.52" height="158"/><rect x="0.5" y="256.23" width="72.52" height="72.52"/><polygon points="243.5 243.02 170.98 170.5 243.5 170.5 243.5 243.02"/><polygon points="256.5 243.02 256.5 170.5 329.02 170.5 256.5 243.02"/><rect x="427.98" y="170.98" width="72.52" height="72.52"/><rect x="0.5" y="341.47" width="72.52" height="72.52"/><polygon points="158.26 413.99 85.74 413.99 158.26 341.47 158.26 413.99"/><rect x="170.98" y="341.47" width="157.52" height="149.03"/><polygon points="415.26 413.99 342.74 413.99 342.74 341.47 415.26 413.99"/><rect x="427.98" y="256.5" width="72.52" height="157.49"/><rect x="0.5" y="426.71" width="72.52" height="72.52"/><rect x="85.74" y="413.5" width="72.52" height="77"/><rect x="342.74" y="413.5" width="72.52" height="85.73"/><rect x="427.98" y="426.71" width="72.52" height="63.79"/><polyline points="256.5 170.5 243.5 170.5 243.5 243.5 256.5 243.5"/></g></svg>
